# xmcd CD database file
# Copyright (C) 1993-1998 Ti Kan
# 
# Track frame offsets:
#     150
#     19097
#     41485
#     58402
#     75065
#     96557
#     116295
#     134167
#     155882
#     170355
#     199250
#     224580
#     230587
#     238652
#     245892
# 
# Disc length: 3384 seconds
# 
# Revision: 1
# Processed by: cddbd v1.4b41PL1 Copyright (c) Steve Scherf et al.
# Submitted via: DiscPlay 4.0.4
# 
DISCID=de0d360f
DTITLE=Lead Belly - Gwine Dig A Hole To Put the Devil In
DYEAR=1900
DGENRE=
TTITLE0=C.C.Rider
TTITLE1=Governer Pat Neff
TTITLE2=Becky Dean
TTITLE3=Medicine Man
TTITLE4=Alberta
TTITLE5=Old Rattler
TTITLE6=If It Wasn't For Dicky
TTITLE7=Queen Mary
TTITLE8=Turn Yo' Radio On
TTITLE9=Mama, Did You Bring Me Any Silver?
TTITLE10=The Bourgeois Blues
TTITLE11=Po' Howard
TTITLE12=Dance Calls (incudes One Dollar Bill, Baby)
TTITLE13=Gwine Dig A Hole To Put The Devil In
TTITLE14=Green Corn
EXTD=
EXTT0=
EXTT1=
EXTT2=
EXTT3=
EXTT4=
EXTT5=
EXTT6=
EXTT7=
EXTT8=
EXTT9=
EXTT10=
EXTT11=
EXTT12=
EXTT13=
EXTT14=
PLAYORDER=
